<?xml version="1.0" encoding="iso-8859-1"?>
<!-- Generator: Adobe Illustrator 19.0.0, SVG Export Plug-In . SVG Version: 6.00 Build 0)  -->
<svg version="1.1" id="Capa_1" xmlns="http://www.w3.org/2000/svg" xmlns:xlink="http://www.w3.org/1999/xlink" x="0px" y="0px"
	 viewBox="0 0 420 420" style="enable-background:new 0 0 420 420;" xml:space="preserve">
<g>
	<g>
		<path d="M409.9,203H404v-46.19c0.107-14.42-5.573-28.281-15.77-38.478v-0.084l-0.046-0.074
			C380.461,110.7,376.07,100.432,376,89.685v-59.51c0.028-5.551-4.419-10.09-9.97-10.175h-36.647
			c-5.632,0.052-10.217,4.545-10.383,10.175v59.509c0.044,10.565-4.17,20.703-11.689,28.125c-10.528,10.231-16.42,24.32-16.311,39
			V203h-24v-46.19c-0.026-14.474-5.84-28.337-16.146-38.5l-0.388-0.136C242.589,110.361,238,100.244,238,89.685v-59.51
			c0.164-5.454-4.124-10.008-9.579-10.173c-0.032-0.001-0.065-0.002-0.097-0.002h-36.648c-5.455,0.11-9.789,4.622-9.678,10.078
			c0.001,0.033,0.001,0.065,0.002,0.097v59.509c-0.142,10.627-4.532,20.755-12.189,28.125c-10.665,10.179-16.733,24.257-16.811,39
			V203h-24v-46.19c0.025-14.476-5.753-28.358-16.041-38.542c-0.01-0.01,0.091-0.084,0.081-0.094
			c-7.684-7.489-12.025-17.759-12.04-28.489v-59.51c-0.166-5.63-4.751-10.123-10.383-10.175H53.97
			c-5.551,0.085-9.998,4.624-9.97,10.175v59.509c0.044,10.565-4.17,20.703-11.689,28.125C21.783,128.041,15.891,142.129,16,156.81
			V203h-5.9c-5.551,0.017-10.055,4.499-10.1,10.05v87.732c0,0.034,0.005,0.067,0.005,0.1S0,300.949,0,300.982v88.843
			c0.035,5.576,4.525,10.099,10.1,10.175h399.8c5.575-0.076,10.065-4.599,10.1-10.175v-88.843c0-0.033,0-0.066,0-0.1s0-0.066,0-0.1
			V213.05C419.955,207.499,415.451,203.017,409.9,203z M339,40h17v23h-17V40z M321.288,132.159
			c11.372-11.203,17.755-26.512,17.712-42.475V83h17v6.685c0.068,16.075,6.597,31.448,18.118,42.66l0.142,0.148
			c4.514,4.559,7.692,10.268,9.189,16.507h-71.486C313.455,142.632,316.683,136.803,321.288,132.159z M311,169h73v34h-73V169z
			 M202,40h16v23h-16V40z M183.935,132.159c11.469-11.166,17.977-26.468,18.065-42.475V83h16v6.685
			c0,15.932,6.6,31.092,18.325,42.721l7.136-7.088l-6.941,7.175c4.523,4.557,7.713,10.266,9.222,16.507h-71.486
			C175.882,142.607,179.23,136.782,183.935,132.159z M173,169h74v34h-74V169z M64,40h17v23H64V40z M46.082,132.159L46.082,132.159
			C57.51,120.977,63.966,105.673,64,89.684V83h17v6.685c-0.007,16.069,6.464,31.462,17.95,42.7l6.949-7.1l-7,7.207
			c4.499,4.563,7.66,10.273,9.137,16.508H36.55C38.12,142.617,41.418,136.791,46.082,132.159z M36,169h73v34H36V169z M400,380H20
			v-69h380V380z M400,291H20v-68h380V291z"/>
	</g>
</g>
<g>
	<g>
		<path d="M259.312,246h-98.623c-5.523,0-10,4.477-10,10c0,5.523,4.477,10,10,10h98.623c5.523,0,10-4.477,10-10
			C269.312,250.477,264.835,246,259.312,246z"/>
	</g>
</g>
<g>
	<g>
		<path d="M259.312,335h-98.623c-5.523,0-10,4.477-10,10c0,5.523,4.477,10,10,10h98.623c5.523,0,10-4.477,10-10
			C269.312,339.477,264.835,335,259.312,335z"/>
	</g>
</g>
<g>
</g>
<g>
</g>
<g>
</g>
<g>
</g>
<g>
</g>
<g>
</g>
<g>
</g>
<g>
</g>
<g>
</g>
<g>
</g>
<g>
</g>
<g>
</g>
<g>
</g>
<g>
</g>
<g>
</g>
</svg>
