<svg height="512pt" viewBox="0 -45 512 512" width="512pt" xmlns="http://www.w3.org/2000/svg"><path d="m486.476562 370.941406h-17.667968v-157.488281c0-15.359375-12.492188-27.855469-27.847656-27.855469h-81.03125l.023437-57.445312c.003906-4.179688-3.378906-7.566406-7.554687-7.570313-4.171876 0-7.558594 3.386719-7.558594 7.5625l-.023438 57.453125h-68.085937c-7.996094 0-15.207031 3.390625-20.292969 8.808594-5.082031-5.417969-12.296875-8.808594-20.289062-8.808594h-81.035157v-157.742187c0-7.015625 5.710938-12.722657 12.734375-12.722657h34.246094v27.707032c0 9.492187 7.710938 17.214844 17.191406 17.214844h58.859375c9.464844 0 17.167969-7.722657 17.167969-17.214844v-27.707032h36.765625c7.019531 0 12.734375 5.707032 12.734375 12.726563v64.757813c0 4.179687 3.382812 7.566406 7.558594 7.566406 4.171875 0 7.554687-3.386719 7.554687-7.566406v-64.761719c0-15.359375-12.492187-27.855469-27.847656-27.855469h-164.230469c-15.355468 0-27.847656 12.496094-27.847656 27.855469v157.742187h-68.085938c-15.351562 0-27.847656 12.496094-27.847656 27.855469v157.488281h-18.570312c-14.058594 0-25.496094 11.453125-25.496094 25.53125 0 14.074219 11.4375 25.527344 25.496094 25.527344h460.980468c14.074219 0 25.523438-11.453125 25.523438-25.527344 0-14.078125-11.449219-25.53125-25.523438-25.53125zm-206.28125-328.101562c0 1.128906-.9375 2.085937-2.050781 2.085937h-58.859375c-1.128906 0-2.078125-.957031-2.078125-2.085937v-27.707032h62.988281zm45.894532 157.890625h62.988281v27.707031c0 1.113281-.949219 2.054688-2.074219 2.054688h-58.835937c-1.128907 0-2.078125-.941407-2.078125-2.054688zm-49.359375 0h34.242187v27.707031c0 9.476562 7.714844 17.1875 17.195313 17.1875h58.832031c9.480469 0 17.191406-7.710938 17.191406-17.1875v-27.707031h36.769532c7.019531 0 12.734374 5.707031 12.734374 12.722656v157.488281h-189.699218v-157.488281c0-7.015625 5.714844-12.722656 12.734375-12.722656zm-155.425781 0h62.960937v27.707031c0 1.113281-.9375 2.054688-2.050781 2.054688h-58.859375c-1.132813 0-2.050781-.921876-2.050781-2.054688zm365.171874 206.136719h-460.980468c-5.726563 0-10.382813-4.664063-10.382813-10.394532 0-5.734375 4.65625-10.398437 10.382813-10.398437h106.414062c4.175782 0 7.558594-3.386719 7.558594-7.566407 0-4.179687-3.382812-7.566406-7.558594-7.566406h-72.726562v-157.488281c0-7.015625 5.710937-12.722656 12.730468-12.722656h34.273438v27.707031c0 9.476562 7.699219 17.1875 17.164062 17.1875h58.863282c9.464844 0 17.164062-7.710938 17.164062-17.1875v-27.707031h36.769532c7.019531 0 12.734374 5.707031 12.734374 12.722656v157.488281h-82.339843c-4.171875 0-7.554688 3.386719-7.554688 7.566406 0 4.179688 3.382813 7.566407 7.554688 7.566407h319.929687c5.742188 0 10.414063 4.664062 10.414063 10.394531 0 5.734375-4.671875 10.398438-10.410157 10.398438zm0 0"/></svg>