<svg xmlns="http://www.w3.org/2000/svg" width="57.156" height="50.831" viewBox="0 0 57.156 50.831">
  <g id="cash-icon" transform="translate(0 0.006)">
    <g id="Layer_1" data-name="Layer 1" transform="translate(0 -0.006)">
      <path id="Path_1706" data-name="Path 1706" d="M26.115,43.78h10.92a.535.535,0,0,1,.475.585h0a.535.535,0,0,1-.475.585H26.115a.535.535,0,0,1-.475-.585h0A.535.535,0,0,1,26.115,43.78Z" transform="translate(-3.884 -6.627)" fill="#fff" fill-rule="evenodd"/>
      <path id="Path_1707" data-name="Path 1707" d="M35.788,37.391v9.792a.747.747,0,0,1-1.137-.2l-5.668-7.441v7.637c0,.441-1.171.467-1.162,0V37.391c0-.178.772-.153,1,.042.645.543,4.921,6.415,5.8,7.56V37.4c0-.45,1.078-.6,1.162,0Z" transform="translate(-4.214 -5.6)" fill="#fff" fill-rule="evenodd"/>
      <path id="Path_1708" data-name="Path 1708" d="M26.115,41.11h10.92a.535.535,0,0,1,.475.585h0a.535.535,0,0,1-.475.585H26.115a.535.535,0,0,1-.475-.585h0A.535.535,0,0,1,26.115,41.11Z" transform="translate(-3.884 -6.222)" fill="#fff" fill-rule="evenodd"/>
      <path id="Path_1709" data-name="Path 1709" d="M56.214,26.4H.95a.95.95,0,0,0-.95.95H0V53.875a.95.95,0,0,0,.942.95H56.1a.942.942,0,0,0,.4-.085h0a.95.95,0,0,0,.662-.9h0V27.35a.95.95,0,0,0-.942-.95Zm-.1,26.524H1.892V28.318H55.264V52.924Zm-.39,1.7a.95.95,0,0,0,.416.136A.95.95,0,0,1,55.722,54.622Zm-.441-.67Z" transform="translate(0 -3.994)" fill="#fff" fill-rule="evenodd"/>
      <path id="Path_1710" data-name="Path 1710" d="M55.754,24.055,5.794,10.5a.967.967,0,0,0-.713.119.933.933,0,0,0-.416.577l-3.2,13.576a.925.925,0,0,0,.721,1.1.95.95,0,0,0,1.129-.7L6.3,12.5,55.372,25.862h.212a.925.925,0,0,0,.2-1.824Z" transform="translate(-0.219 -1.581)" fill="#fff" fill-rule="evenodd"/>
      <path id="Path_1711" data-name="Path 1711" d="M54.315,20.974,20.578.118a.95.95,0,0,0-1.264.305L12.322,9.647a.95.95,0,0,0,1.553,1.095c6.169-8.731,3.971-4.743,0-.051l6.5-8.485L53.381,22.629a.95.95,0,0,0,.933-1.655Z" transform="translate(-1.843 0.006)" fill="#fff" fill-rule="evenodd"/>
      <path id="Path_1712" data-name="Path 1712" d="M51.388,31.609H42.614a.95.95,0,1,0,0,1.892h8.774a.95.95,0,0,0,0-1.892Z" transform="translate(-6.298 -4.782)" fill="#fff" fill-rule="evenodd"/>
      <path id="Path_1713" data-name="Path 1713" d="M30.644,31.69a9.724,9.724,0,1,0,9.724,9.724,9.724,9.724,0,0,0-9.724-9.724Zm0,17.683A7.959,7.959,0,1,1,38.6,41.414,7.959,7.959,0,0,1,30.644,49.373Z" transform="translate(-3.169 -4.795)" fill="#fff" fill-rule="evenodd"/>
      <path id="Path_1714" data-name="Path 1714" d="M19.455,49.3H11.063L7.1,44.972V37.785l4.378-4.243h7.976a.95.95,0,0,0,0-1.892H11.1a.95.95,0,0,0-.662.272L5.488,36.7a1.188,1.188,0,0,0-.288.772v7.857a.95.95,0,0,0,.246.636l4.489,4.913a.95.95,0,0,0,.7.305h8.825a.95.95,0,0,0,0-1.892Z" transform="translate(-0.788 -4.789)" fill="#fff" fill-rule="evenodd"/>
    </g>
  </g>
</svg>
