<svg height="448pt" viewBox="0 0 448 448" width="448pt" xmlns="http://www.w3.org/2000/svg"><path d="m224 232c26.507812 0 48-21.492188 48-48s-21.492188-48-48-48-48 21.492188-48 48 21.492188 48 48 48zm16-72h16v16h-16zm-48 0h16v16h-16zm0 0"/><path d="m256 256h-64c-30.914062.035156-55.964844 25.085938-56 56v136h176v-136c-.035156-30.914062-25.085938-55.964844-56-56zm24 184h-16v-16h16zm24 0h-16v-16h16zm0-24h-16v-16h16zm0 0"/><path d="m360 96c26.507812 0 48-21.492188 48-48s-21.492188-48-48-48-48 21.492188-48 48 21.492188 48 48 48zm16-72h16v16h-16zm-48 0h16v16h-16zm0 0"/><path d="m88 96c26.507812 0 48-21.492188 48-48s-21.492188-48-48-48-48 21.492188-48 48 21.492188 48 48 48zm16-72h16v16h-16zm-48 0h16v16h-16zm0 0"/><path d="m160 68c.996094 0 1.984375-.183594 2.910156-.542969 7.0625-2.761719 14.308594-5.035156 21.683594-6.800781h.207031c7.320313-1.773438 14.75-3.054688 22.238281-3.839844 2.121094-.140625 4.074219-1.191406 5.359376-2.878906 2.101562-2.480469 2.472656-5.988281.9375-8.851562-1.539063-2.863282-4.671876-4.492188-7.894532-4.109376-8.21875.792969-16.371094 2.15625-24.402344 4.078126-8.132812 1.945312-16.121093 4.449218-23.910156 7.488281-3.582031 1.394531-5.667968 5.140625-4.964844 8.917969.699219 3.78125 3.992188 6.527343 7.835938 6.539062zm0 0"/><path d="m263.246094 60.609375c7.429687 1.773437 14.730468 4.0625 21.84375 6.847656.925781.355469 1.914062.542969 2.910156.542969 3.851562.007812 7.160156-2.734375 7.875-6.519531.710938-3.785157-1.375-7.539063-4.964844-8.9375-7.796875-3.042969-15.800781-5.546875-23.941406-7.496094-2.796875-.707031-5.757812.144531-7.75 2.226563-1.992188 2.085937-2.710938 5.082031-1.875 7.84375.835938 2.761718 3.089844 4.859374 5.902344 5.492187zm0 0"/><path d="m192 240h1.121094c-15.382813-8.40625-26.613282-22.785156-31.050782-39.742188-4.433593-16.957031-1.683593-34.996093 7.609376-49.859374-9.550782-18.644532-28.730469-30.382813-49.679688-30.398438h-64c-30.914062.035156-55.9648438 25.085938-56 56v136h120c.0625-39.738281 32.261719-71.9375 72-72zm-168 64h-16v-16h16zm0-24h-16v-16h16zm24 24h-16v-16h16zm0 0"/><path d="m392 120h-64c-20.949219.015625-40.128906 11.753906-49.679688 30.398438 9.292969 14.863281 12.042969 32.902343 7.609376 49.859374-4.4375 16.957032-15.667969 31.335938-31.050782 39.742188h1.121094c39.738281.0625 71.9375 32.261719 72 72h120v-136c-.035156-30.914062-25.085938-55.964844-56-56zm24 184h-16v-16h16zm24 0h-16v-16h16zm0-24h-16v-16h16zm0 0"/><path d="m248 48c0 4.417969-3.582031 8-8 8s-8-3.582031-8-8 3.582031-8 8-8 8 3.582031 8 8zm0 0"/><path d="m112.238281 368c-1.84375 0-3.628906-.652344-5.039062-1.839844-9.273438-7.59375-17.765625-16.085937-25.359375-25.359375-1.363282-1.625-2.023438-3.726562-1.839844-5.839843.300781-3.234376 2.527344-5.964844 5.632812-6.910157 3.101563-.949219 6.472657.074219 8.527344 2.589844 6.976563 8.453125 14.746094 16.222656 23.199219 23.199219 3.410156 2.8125 3.914063 7.851562 1.121094 11.28125-1.550781 1.835937-3.835938 2.890625-6.242188 2.878906zm0 0"/><path d="m336 367.761719c-2.382812.011719-4.644531-1.046875-6.160156-2.882813-1.371094-1.628906-2.03125-3.738281-1.835938-5.855468.195313-2.121094 1.230469-4.074219 2.875-5.421876 8.375-6.898437 16.066406-14.585937 22.960938-22.960937 2.828125-3.316406 7.769531-3.8125 11.199218-1.121094 3.398438 2.820313 3.898438 7.847657 1.121094 11.28125-7.527344 9.152344-15.910156 17.5625-25.039062 25.121094-1.441406 1.191406-3.25 1.839844-5.121094 1.839844zm0 0"/></svg>