<svg xmlns="http://www.w3.org/2000/svg" width="34.534" height="58.031" viewBox="0 0 34.534 58.031">
  <g id="payment-icon" transform="translate(-99)">
    <g id="Group_1459" data-name="Group 1459" transform="translate(99)">
      <g id="Group_1458" data-name="Group 1458" transform="translate(0)">
        <path id="Path_1718" data-name="Path 1718" d="M128.633,0H103.9A4.9,4.9,0,0,0,99,4.9V53.13a4.9,4.9,0,0,0,4.9,4.9h24.731a4.9,4.9,0,0,0,4.9-4.9V4.9A4.9,4.9,0,0,0,128.633,0Zm2.646,53.213a2.6,2.6,0,0,1-2.575,2.563H103.949a2.6,2.6,0,0,1-2.575-2.563V46.995h29.906Zm0-8.592H101.373V11.749h29.906Zm0-35.246H101.373V4.937a2.6,2.6,0,0,1,2.575-2.563H128.7a2.6,2.6,0,0,1,2.575,2.563Z" transform="translate(-99)" fill="#f9faff"/>
      </g>
    </g>
    <g id="Group_1461" data-name="Group 1461" transform="translate(111.117 4.391)">
      <g id="Group_1460" data-name="Group 1460" transform="translate(0)">
        <path id="Path_1719" data-name="Path 1719" d="M210.333,37h-8.046a1.187,1.187,0,0,0,0,2.373h8.046a1.187,1.187,0,0,0,0-2.373Z" transform="translate(-201.1 -37)" fill="#f9faff"/>
      </g>
    </g>
    <g id="Group_1463" data-name="Group 1463" transform="translate(112.659 47.695)">
      <g id="Group_1462" data-name="Group 1462">
        <path id="Path_1720" data-name="Path 1720" d="M217.767,401.9a3.661,3.661,0,1,0,3.667,3.655A3.669,3.669,0,0,0,217.767,401.9Zm0,4.961a1.294,1.294,0,1,1,1.294-1.294A1.3,1.3,0,0,1,217.767,406.86Z" transform="translate(-214.1 -401.9)" fill="#f9faff"/>
      </g>
    </g>
    <g id="Group_1465" data-name="Group 1465" transform="translate(103.723 16.472)">
      <g id="Group_1464" data-name="Group 1464" transform="translate(0)">
        <path id="Path_1721" data-name="Path 1721" d="M151.4,138.8a12.6,12.6,0,1,0,12.6,12.6A12.611,12.611,0,0,0,151.4,138.8Zm0,22.833a10.23,10.23,0,1,1,10.23-10.23A10.231,10.231,0,0,1,151.4,161.633Z" transform="translate(-138.8 -138.8)" fill="#f9faff"/>
      </g>
    </g>
    <g id="Group_1467" data-name="Group 1467" transform="translate(108.945 22.307)">
      <g id="Group_1466" data-name="Group 1466" transform="translate(0)">
        <path id="Path_1722" data-name="Path 1722" d="M192.721,198.821a4.373,4.373,0,0,1-4.676-.973c-.012-.012-.036-.036-.047-.036h4.047a1.187,1.187,0,1,0,0-2.373h-5.222a3.593,3.593,0,0,1-.047-.712h5.9a1.187,1.187,0,0,0,0-2.373h-5.162a5.265,5.265,0,0,1,.546-.7,4.38,4.38,0,0,1,4.676-1.009,1.181,1.181,0,0,0,1.531-.7,1.2,1.2,0,0,0-.676-1.531,6.753,6.753,0,0,0-7.2,1.555,6.156,6.156,0,0,0-1.531,2.373h-.843a1.187,1.187,0,0,0,0,2.373h.392q0,.356.036.712h-.427a1.231,1.231,0,0,0-1.21,1.21,1.19,1.19,0,0,0,1.187,1.187H185.1a7.391,7.391,0,0,0,1.258,1.709,6.75,6.75,0,0,0,7.2,1.519,1.193,1.193,0,0,0-.843-2.231Z" transform="translate(-182.8 -187.971)" fill="#f9faff"/>
      </g>
    </g>
  </g>
</svg>
