<svg xmlns="http://www.w3.org/2000/svg" width="34.949" height="58.803" viewBox="0 0 34.949 58.803">
  <g id="pos-icon" transform="translate(0.003)">
    <g id="Layer_1" data-name="Layer 1" transform="translate(-0.003 0)">
      <path id="Path_1686" data-name="Path 1686" d="M34.616,55.65V48.8a1.575,1.575,0,0,0-1.572-1.572H12.972A1.575,1.575,0,0,0,11.4,48.8V55.65a1.575,1.575,0,0,0,1.572,1.572H33.045a1.572,1.572,0,0,0,1.572-1.572ZM32.893,55.5H13.123V48.953h19.77V55.5Zm0,0" transform="translate(-7.183 -29.764)" fill="#fff" fill-rule="evenodd"/>
      <path id="Path_1687" data-name="Path 1687" d="M18.828,79a2.958,2.958,0,1,0,2.958,2.958A2.958,2.958,0,0,0,18.828,79Zm0,4.2a.516.516,0,1,1,0,.007Zm0,0" transform="translate(-10 -49.786)" fill="#fff" fill-rule="evenodd"/>
      <path id="Path_1688" data-name="Path 1688" d="M37.748,79a2.958,2.958,0,1,0,2.958,2.958A2.958,2.958,0,0,0,37.748,79Zm0,4.2a.516.516,0,1,1,0,.007Zm0,0" transform="translate(-21.923 -49.786)" fill="#fff" fill-rule="evenodd"/>
      <path id="Path_1689" data-name="Path 1689" d="M56.678,84.967a2.958,2.958,0,1,0-2.958-2.958A2.958,2.958,0,0,0,56.678,84.967Zm0-4.2a1.239,1.239,0,1,1-1.243,1.228,1.239,1.239,0,0,1,1.243-1.228Zm0,0" transform="translate(-33.853 -49.817)" fill="#fff" fill-rule="evenodd"/>
      <path id="Path_1690" data-name="Path 1690" d="M18.828,97.25a2.958,2.958,0,1,0,2.958,2.958A2.958,2.958,0,0,0,18.828,97.25Zm0,4.2a1.239,1.239,0,1,1,1.239-1.239,1.239,1.239,0,0,1-1.239,1.239Zm0,0" transform="translate(-10 -61.287)" fill="#fff" fill-rule="evenodd"/>
      <path id="Path_1691" data-name="Path 1691" d="M37.748,97.25a2.958,2.958,0,1,0,2.958,2.958A2.958,2.958,0,0,0,37.748,97.25Zm0,4.2a1.239,1.239,0,1,1,1.239-1.239,1.239,1.239,0,0,1-1.239,1.239Zm0,0" transform="translate(-21.923 -61.287)" fill="#fff" fill-rule="evenodd"/>
      <path id="Path_1692" data-name="Path 1692" d="M56.678,103.2a2.958,2.958,0,1,0-2.958-2.958A2.958,2.958,0,0,0,56.678,103.2Zm0-4.2a1.239,1.239,0,1,1-1.239,1.239,1.239,1.239,0,0,1,1.239-1.239Zm0,0" transform="translate(-33.853 -61.305)" fill="#fff" fill-rule="evenodd"/>
      <path id="Path_1693" data-name="Path 1693" d="M18.828,115.48a2.958,2.958,0,1,0,2.958,2.958A2.958,2.958,0,0,0,18.828,115.48Zm0,4.2a1.239,1.239,0,1,1,1.239-1.239,1.239,1.239,0,0,1-1.239,1.239Zm0,0" transform="translate(-10 -72.775)" fill="#fff" fill-rule="evenodd"/>
      <path id="Path_1694" data-name="Path 1694" d="M37.748,115.48a2.958,2.958,0,1,0,2.958,2.958A2.958,2.958,0,0,0,37.748,115.48Zm0,4.2a1.239,1.239,0,1,1,1.239-1.239,1.239,1.239,0,0,1-1.239,1.239Zm0,0" transform="translate(-21.923 -72.775)" fill="#fff" fill-rule="evenodd"/>
      <path id="Path_1695" data-name="Path 1695" d="M18.828,133.71a2.958,2.958,0,1,0,2.958,2.958A2.958,2.958,0,0,0,18.828,133.71Zm0,4.2a1.239,1.239,0,1,1,1.239-1.239,1.239,1.239,0,0,1-1.239,1.239Zm0,0" transform="translate(-10 -84.264)" fill="#fff" fill-rule="evenodd"/>
      <path id="Path_1696" data-name="Path 1696" d="M37.748,133.71a2.958,2.958,0,1,0,2.958,2.958A2.958,2.958,0,0,0,37.748,133.71Zm0,4.2a1.239,1.239,0,1,1,1.239-1.239,1.239,1.239,0,0,1-1.239,1.239Zm0,0" transform="translate(-21.923 -84.264)" fill="#fff" fill-rule="evenodd"/>
      <path id="Path_1697" data-name="Path 1697" d="M53.614,126.049a2.1,2.1,0,0,0,2.1,2.1h1.794a2.1,2.1,0,0,0,2.1-2.1V117.58a2.1,2.1,0,0,0-2.1-2.1h-1.8a2.1,2.1,0,0,0-2.1,2.1v8.468Zm1.723-8.468a.37.37,0,0,1,.37-.37H57.5a.37.37,0,0,1,.37.37v8.468a.37.37,0,0,1-.37.37H55.71a.37.37,0,0,1-.37-.37Zm0,0" transform="translate(-33.784 -72.775)" fill="#fff" fill-rule="evenodd"/>
      <path id="Path_1698" data-name="Path 1698" d="M29.039,11.4H28.022a.862.862,0,1,0,0,1.723h1.017a.862.862,0,1,0,0-1.723Zm0,0" transform="translate(-17.115 -7.184)" fill="#fff" fill-rule="evenodd"/>
      <path id="Path_1699" data-name="Path 1699" d="M44.066,11.4H37.872a.862.862,0,1,0,0,1.723h6.194a.862.862,0,0,0,0-1.723Zm0,0" transform="translate(-23.322 -7.184)" fill="#fff" fill-rule="evenodd"/>
      <path id="Path_1700" data-name="Path 1700" d="M29.039,20.56H28.022a.862.862,0,1,0,0,1.723h1.017a.862.862,0,1,0,0-1.723Zm0,0" transform="translate(-17.115 -12.957)" fill="#fff" fill-rule="evenodd"/>
      <path id="Path_1701" data-name="Path 1701" d="M44.066,20.56H37.872a.862.862,0,1,0,0,1.723h6.194a.862.862,0,0,0,0-1.723Zm0,0" transform="translate(-23.322 -12.957)" fill="#fff" fill-rule="evenodd"/>
      <path id="Path_1702" data-name="Path 1702" d="M29.039,29.71H28.022a.862.862,0,1,0,0,1.723h1.017a.862.862,0,1,0,0-1.723Zm0,0" transform="translate(-17.115 -18.723)" fill="#fff" fill-rule="evenodd"/>
      <path id="Path_1703" data-name="Path 1703" d="M44.066,29.71H37.872a.862.862,0,1,0,0,1.723h6.194a.862.862,0,0,0,0-1.723Zm0,0" transform="translate(-23.322 -18.723)" fill="#fff" fill-rule="evenodd"/>
      <path id="Path_1704" data-name="Path 1704" d="M34.937,16.833a1.849,1.849,0,0,0-1.849-1.849H31.646V12.573a2.589,2.589,0,0,0-2.589-2.589H24.749V2.541a1.694,1.694,0,0,0-.692-1.361L22.977.37a1.849,1.849,0,0,0-2.219,0L19.919,1a.133.133,0,0,1-.144,0L18.943.37a1.849,1.849,0,0,0-2.219,0L15.9.995a.137.137,0,0,1-.144,0L14.912.37a1.849,1.849,0,0,0-2.219,0L11.857,1a.137.137,0,0,1-.144,0L10.878.37a1.849,1.849,0,0,0-2.219,0l-1.072.81a1.694,1.694,0,0,0-.692,1.361v7.47H2.587A2.589,2.589,0,0,0,0,12.6V33.186a.928.928,0,0,0,0,.1l.895,8.28A.862.862,0,0,0,2.6,41.374l-.884-8.232V12.573a.851.851,0,0,1,.865-.839H4.214v2.94a1.209,1.209,0,0,0,1.206,1.206H26.224a1.209,1.209,0,0,0,1.206-1.206v-2.94h1.642a.851.851,0,0,1,.851.851V33.142L27.393,56.314a.847.847,0,0,1-.843.74H5.1a.847.847,0,0,1-.843-.74l-1.635-14.9a.862.862,0,0,0-1.712.189l1.627,14.9A2.589,2.589,0,0,0,5.094,58.8H26.542A2.589,2.589,0,0,0,29.1,56.51l.37-3.247h1.657a1.849,1.849,0,0,0,1.849-1.642l1.967-16.93a.9.9,0,0,0,0-.1V16.841Zm-1.723,17.7L31.25,51.4a.133.133,0,0,1-.133.118H29.638l2-18.239a.82.82,0,0,0,0-.092V16.7h1.435a.133.133,0,0,1,.133.133v17.7ZM6.895,14.156H5.937V11.734h.958Zm16.131,0H8.6V2.559h0l1.08-.81a.137.137,0,0,1,.144,0l.836.629a1.849,1.849,0,0,0,2.219,0l.839-.629a.133.133,0,0,1,.144,0l.836.629a1.849,1.849,0,0,0,2.219,0l.828-.632a.133.133,0,0,1,.144,0l.839.629a1.849,1.849,0,0,0,2.219,0l.865-.629a.133.133,0,0,1,.144,0l1.084.814v11.6Zm2.681,0h-.958V11.734h.958Z" transform="translate(0.003 0)" fill="#fff" fill-rule="evenodd"/>
      <path id="Path_1705" data-name="Path 1705" d="M3.407,111.562a.862.862,0,0,0,.762-.95v-.1a.862.862,0,0,0-1.69.318v.1a.862.862,0,0,0,.928.632Z" transform="translate(-1.557 -69.238)" fill="#fff" stroke="#fff" stroke-miterlimit="2.61" stroke-width="0.5" fill-rule="evenodd"/>
    </g>
  </g>
</svg>
