<svg height="512" viewBox="0 0 54 60" width="512" xmlns="http://www.w3.org/2000/svg"><g id="Page-1" fill="none" fill-rule="evenodd"><g id="057---Splitting-Bill" fill="rgb(0,0,0)" fill-rule="nonzero"><path id="Shape" d="m37 43c0 .5522847.4477153 1 1 1s1-.4477153 1-1c0-1.932-1.721-3.547-4-3.919v-.081c0-.5522847-.4477153-1-1-1s-1 .4477153-1 1v.081c-2.279.372-4 1.987-4 3.919s1.721 3.547 4 3.919v3.954c-1.15-.283-2-1.022-2-1.873 0-.5522847-.4477153-1-1-1s-1 .4477153-1 1c0 1.932 1.721 3.547 4 3.919v.081c0 .5522847.4477153 1 1 1s1-.4477153 1-1v-.081c2.279-.372 4-1.987 4-3.919s-1.721-3.547-4-3.919v-3.954c1.15.283 2 1.022 2 1.873zm-6 0c0-.851.85-1.59 2-1.873v3.746c-1.15-.283-2-1.022-2-1.873zm6 6c0 .851-.85 1.59-2 1.873v-3.746c1.15.283 2 1.022 2 1.873z"/><path id="Shape" d="m7 20h3c1.6680192.0073962 3.1639686-1.0253639 3.748285-2.5877074.5843165-1.5623435.1332171-3.3232998-1.130285-4.4122926 1.2635021-1.0889928 1.7146015-2.8499491 1.130285-4.4122926-.5843164-1.56234348-2.0802658-2.59510356-3.748285-2.5877074h-3c-1.1045695 0-2 .8954305-2 2v10c0 1.1045695.8954305 2 2 2zm5-4c0 1.1045695-.8954305 2-2 2h-3v-4h3c1.1045695 0 2 .8954305 2 2zm-5-8h3c1.1045695 0 2 .8954305 2 2s-.8954305 2-2 2h-3z"/><path id="Shape" d="m17 18c-.5522847 0-1 .4477153-1 1s.4477153 1 1 1h4c.5522847 0 1-.4477153 1-1s-.4477153-1-1-1h-1v-10h1c.5522847 0 1-.44771525 1-1s-.4477153-1-1-1h-4c-.5522847 0-1 .44771525-1 1s.4477153 1 1 1h1v10z"/><path id="Shape" d="m26 20h5c.5522847 0 1-.4477153 1-1s-.4477153-1-1-1h-4v-11c0-.55228475-.4477153-1-1-1s-1 .44771525-1 1v12c0 .5522847.4477153 1 1 1z"/><path id="Shape" d="m35 20h5c.5522847 0 1-.4477153 1-1s-.4477153-1-1-1h-4v-11c0-.55228475-.4477153-1-1-1s-1 .44771525-1 1v12c0 .5522847.4477153 1 1 1z"/><path id="Shape" d="m0 2v24.382c-.00299558.75827.42562358 1.4522063 1.105 1.789l3 1.5c.56406386.2789481 1.22593614.2789481 1.79 0l3.105-1.553 3.105 1.553c.5640639.2789481 1.2259361.2789481 1.79 0l3.105-1.553 3.105 1.553c.5640639.2789481 1.2259361.2789481 1.79 0l3.105-1.553 3.105 1.553c.5640639.2789481 1.2259361.2789481 1.79 0l3.105-1.553 3.1 1.553c.5638101.2800314 1.2261899.2800314 1.79 0l3.11-1.553 2.106 1.053c.6199641.309797 1.3561233.2765486 1.9456365-.087874.5895131-.3644226.94834-1.0080678.9483635-1.701126v-25.382c0-1.1045695-.8954305-2-2-2h-42c-1.1045695 0-2 .8954305-2 2zm44 25.382-2.1-1.053c-.5640639-.2789481-1.2259361-.2789481-1.79 0l-3.11 1.553-3.1-1.553c-.5638101-.2800314-1.2261899-.2800314-1.79 0l-3.11 1.553-3.1-1.553c-.5640639-.2789481-1.2259361-.2789481-1.79 0l-3.11 1.553-3.1-1.553c-.5640639-.2789481-1.2259361-.2789481-1.79 0l-3.11 1.553-3.1-1.553c-.56406386-.2789481-1.22593614-.2789481-1.79 0l-3.11 1.553-3-1.5v-24.382h42z"/><path id="Shape" d="m52 40h-6v-5.382c.0039364-.7571514-.4225671-1.4508012-1.1-1.789l-3-1.5c-.5640639-.2789481-1.2259361-.2789481-1.79 0l-3.11 1.553-3.1-1.553c-.5640639-.2789481-1.2259361-.2789481-1.79 0l-3.11 1.553-3.1-1.553c-.5640639-.2789481-1.2259361-.2789481-1.79 0l-3.11 1.553-3.1-1.553c-.5640639-.2789481-1.2259361-.2789481-1.79 0l-3.11 1.553-3.1-1.553c-.56406386-.2789481-1.22593614-.2789481-1.79 0l-3.11 1.553-2.106-1.053c-.61996405-.309797-1.3561233-.2765486-1.94563646.087874s-.94834001 1.0080678-.94836354 1.701126v21.382c.00330612 2.7600532 2.23994685 4.9966939 5 5h43.99c.155 0 .321-.011.495-.024 2.5954655-.3160261 4.5392598-2.531478 4.515-5.146v-12.83c0-1.1045695-.8954305-2-2-2zm-47 18c-1.65685425 0-3-1.3431458-3-3v-21.382l2.105 1.053c.56406386.2789481 1.22593614.2789481 1.79 0l3.105-1.553 3.105 1.553c.5640639.2789481 1.2259361.2789481 1.79 0l3.105-1.553 3.105 1.553c.5640639.2789481 1.2259361.2789481 1.79 0l3.105-1.553 3.105 1.553c.5640639.2789481 1.2259361.2789481 1.79 0l3.105-1.553 3.1 1.553c.5640639.2789481 1.2259361.2789481 1.79 0l3.11-1.553 3 1.5v20.382c-.0010855 1.0820269.3499155 2.1350297 1 3zm47-3.17c.033837 1.5800895-1.1206187 2.935264-2.686 3.153-.1.008-.218.017-.324.017-1.6529477-.0055099-2.9900092-1.3470431-2.99-3v-13h6z"/><path id="Shape" d="m25 38h-19c-.55228475 0-1 .4477153-1 1s.44771525 1 1 1h19c.5522847 0 1-.4477153 1-1s-.4477153-1-1-1z"/><path id="Shape" d="m25 43h-19c-.55228475 0-1 .4477153-1 1s.44771525 1 1 1h19c.5522847 0 1-.4477153 1-1s-.4477153-1-1-1z"/><path id="Shape" d="m25 48h-19c-.55228475 0-1 .4477153-1 1s.44771525 1 1 1h19c.5522847 0 1-.4477153 1-1s-.4477153-1-1-1z"/><path id="Shape" d="m16 53h-10c-.55228475 0-1 .4477153-1 1s.44771525 1 1 1h10c.5522847 0 1-.4477153 1-1s-.4477153-1-1-1z"/></g></g></svg>