<svg xmlns="http://www.w3.org/2000/svg" width="49.832" height="55.369" viewBox="0 0 49.832 55.369">
  <g id="split-icon" transform="translate(0)">
    <g id="_057---Splitting-Bill" data-name="057---Splitting-Bill" transform="translate(0 0)">
      <path id="Shape" d="M36.383,42.614a.923.923,0,1,0,1.846,0c0-1.783-1.588-3.273-3.691-3.617v-.075a.923.923,0,0,0-1.846,0V39c-2.1.343-3.691,1.834-3.691,3.617s1.588,3.273,3.691,3.617v3.649c-1.061-.261-1.846-.943-1.846-1.728a.923.923,0,1,0-1.846,0c0,1.783,1.588,3.273,3.691,3.617v.075a.923.923,0,1,0,1.846,0v-.075c2.1-.343,3.691-1.834,3.691-3.617s-1.588-3.273-3.691-3.617V40.886C35.6,41.147,36.383,41.829,36.383,42.614Zm-5.537,0c0-.785.784-1.467,1.846-1.728v3.457C31.63,44.081,30.846,43.4,30.846,42.614Zm5.537,5.537c0,.785-.784,1.467-1.846,1.728V46.423c1.061.261,1.846.943,1.846,1.728Z" transform="translate(-2.238 -2.933)" fill="#f9faff"/>
      <path id="Shape-2" data-name="Shape" d="M6.846,18.919H9.614a3.676,3.676,0,0,0,2.416-6.46A3.676,3.676,0,0,0,9.614,6H6.846A1.846,1.846,0,0,0,5,7.846v9.228A1.846,1.846,0,0,0,6.846,18.919Zm4.614-3.691a1.846,1.846,0,0,1-1.846,1.846H6.846V13.383H9.614A1.846,1.846,0,0,1,11.46,15.228ZM6.846,7.846H9.614a1.846,1.846,0,1,1,0,3.691H6.846Z" transform="translate(-0.386 -0.463)" fill="#f9faff"/>
      <path id="Shape-3" data-name="Shape" d="M16.923,17.074a.923.923,0,0,0,0,1.846h3.691a.923.923,0,1,0,0-1.846h-.923V7.846h.923a.923.923,0,1,0,0-1.846H16.923a.923.923,0,0,0,0,1.846h.923v9.228Z" transform="translate(-1.235 -0.463)" fill="#f9faff"/>
      <path id="Shape-4" data-name="Shape" d="M25.923,18.919h4.614a.923.923,0,1,0,0-1.846H26.846V6.923a.923.923,0,0,0-1.846,0V18A.923.923,0,0,0,25.923,18.919Z" transform="translate(-1.93 -0.463)" fill="#f9faff"/>
      <path id="Shape-5" data-name="Shape" d="M34.923,18.919h4.614a.923.923,0,1,0,0-1.846H35.846V6.923a.923.923,0,0,0-1.846,0V18A.923.923,0,0,0,34.923,18.919Z" transform="translate(-2.624 -0.463)" fill="#f9faff"/>
      <path id="Shape-6" data-name="Shape" d="M0,1.846v22.5A1.835,1.835,0,0,0,1.02,26l2.768,1.384a1.863,1.863,0,0,0,1.652,0l2.865-1.433,2.865,1.433a1.863,1.863,0,0,0,1.652,0l2.865-1.433,2.865,1.433a1.863,1.863,0,0,0,1.652,0l2.865-1.433,2.865,1.433a1.863,1.863,0,0,0,1.652,0l2.865-1.433,2.861,1.433a1.857,1.857,0,0,0,1.652,0l2.87-1.433,1.943.972a1.846,1.846,0,0,0,2.671-1.651V1.846A1.846,1.846,0,0,0,40.6,0H1.846A1.846,1.846,0,0,0,0,1.846ZM40.6,25.268,38.666,24.3a1.863,1.863,0,0,0-1.652,0l-2.87,1.433L31.283,24.3a1.857,1.857,0,0,0-1.652,0l-2.87,1.433L23.9,24.3a1.863,1.863,0,0,0-1.652,0l-2.87,1.433L16.518,24.3a1.863,1.863,0,0,0-1.652,0L12,25.73,9.136,24.3a1.863,1.863,0,0,0-1.652,0L4.614,25.73,1.846,24.346V1.846H40.6Z" transform="translate(0 0)" fill="#f9faff"/>
      <path id="Shape-7" data-name="Shape" d="M47.986,39.315H42.449V34.348A1.835,1.835,0,0,0,41.434,32.7l-2.768-1.384a1.863,1.863,0,0,0-1.652,0l-2.87,1.433-2.861-1.433a1.863,1.863,0,0,0-1.652,0l-2.87,1.433L23.9,31.313a1.863,1.863,0,0,0-1.652,0l-2.87,1.433-2.861-1.433a1.863,1.863,0,0,0-1.652,0L12,32.746,9.136,31.313a1.863,1.863,0,0,0-1.652,0l-2.87,1.433-1.943-.972A1.846,1.846,0,0,0,0,33.425V53.157a4.62,4.62,0,0,0,4.614,4.614H45.209c.143,0,.3-.01.457-.022A4.74,4.74,0,0,0,49.832,53V41.16a1.846,1.846,0,0,0-1.846-1.846ZM4.614,55.925a2.768,2.768,0,0,1-2.768-2.768V33.425l1.943.972a1.863,1.863,0,0,0,1.652,0l2.865-1.433L11.171,34.4a1.863,1.863,0,0,0,1.652,0l2.865-1.433L18.553,34.4a1.863,1.863,0,0,0,1.652,0l2.865-1.433L25.936,34.4a1.863,1.863,0,0,0,1.652,0l2.865-1.433L33.314,34.4a1.863,1.863,0,0,0,1.652,0l2.87-1.433L40.6,34.348V53.157a4.6,4.6,0,0,0,.923,2.768ZM47.986,53a2.875,2.875,0,0,1-2.479,2.91c-.092.007-.2.016-.3.016a2.768,2.768,0,0,1-2.759-2.768v-12h5.537Z" transform="translate(0 -2.402)" fill="#f9faff"/>
      <path id="Shape-8" data-name="Shape" d="M23.456,38H5.923a.923.923,0,1,0,0,1.846H23.456a.923.923,0,1,0,0-1.846Z" transform="translate(-0.386 -2.933)" fill="#f9faff"/>
      <path id="Shape-9" data-name="Shape" d="M23.456,43H5.923a.923.923,0,0,0,0,1.846H23.456a.923.923,0,1,0,0-1.846Z" transform="translate(-0.386 -3.319)" fill="#f9faff"/>
      <path id="Shape-10" data-name="Shape" d="M23.456,48H5.923a.923.923,0,1,0,0,1.846H23.456a.923.923,0,1,0,0-1.846Z" transform="translate(-0.386 -3.705)" fill="#f9faff"/>
      <path id="Shape-11" data-name="Shape" d="M15.151,53H5.923a.923.923,0,1,0,0,1.846h9.228a.923.923,0,1,0,0-1.846Z" transform="translate(-0.386 -4.091)" fill="#f9faff"/>
    </g>
  </g>
</svg>
