<svg height="511pt" viewBox="-27 1 511 511.999" width="511pt" xmlns="http://www.w3.org/2000/svg"><path d="m143.167969 45.335938h43.9375c4.148437 0 7.507812-3.363282 7.507812-7.507813 0-4.148437-3.359375-7.507813-7.507812-7.507813h-43.9375c-4.148438 0-7.511719 3.359376-7.511719 7.507813 0 4.144531 3.363281 7.507813 7.511719 7.507813zm0 0"/><path d="m207.152344 45.335938h9.503906c4.148438 0 7.507812-3.363282 7.507812-7.507813 0-4.148437-3.359374-7.507813-7.507812-7.507813h-9.503906c-4.148438 0-7.507813 3.359376-7.507813 7.507813 0 4.144531 3.359375 7.507813 7.507813 7.507813zm0 0"/><path d="m438.550781 219.660156c-7.148437 0-13.402343 3.832032-16.863281 9.539063h-105.171875v-31.269531c2.042969.351562 4.121094.542968 6.234375.542968 19.902344 0 36.109375-16.191406 36.121094-36.09375l.023437-20.328125-.085937-16.921875c-.007813-1.605468-.53125-3.164062-1.488282-4.449218l-40.804687-54.722657v-35.445312c.003906-16.824219-13.6875-30.511719-30.511719-30.511719h-212.675781c-16.824219 0-30.511719 13.6875-30.511719 30.511719v35.445312l-40.804687 54.722657c-.964844 1.296874-1.488281 2.871093-1.488281 4.488281l-.023438 37.160156c-.007812 9.652344 3.746094 18.726563 10.570312 25.554687 6.824219 6.828126 15.898438 10.589844 25.550782 10.589844 2.113281 0 4.179687-.195312 6.195312-.542968v283.554687c0 16.828125 13.6875 30.515625 30.511719 30.515625h212.675781c16.824219 0 30.511719-13.691406 30.511719-30.515625v-210.527344h22.851563v31.140625c-10.179688 10.101563-16.492188 24.09375-16.492188 39.53125 0 30.730469 25 55.730469 55.730469 55.730469s55.730469-25 55.730469-55.730469c0-15.4375-6.3125-29.429687-16.492188-39.53125v-31.140625h3.84375c3.460938 5.703125 9.714844 9.535157 16.859375 9.535157 10.882813 0 19.734375-8.851563 19.734375-19.730469v-21.367188c.003906-10.882812-8.851562-19.734375-19.730469-19.734375zm-151.921875-57.292968c-.007812 11.628906-9.476562 21.089843-21.105468 21.089843-5.640626 0-10.941407-2.195312-14.925782-6.1875-3.988281-3.988281-6.183594-9.292969-6.179687-14.929687l.007812-11.089844.011719-18.574219h42.210938l-.019532 29.652344zm-206.507812-121.320313h23.140625l-42.429688 76.613281h-37.835937zm165.625 15.757813.554687-2.429688 8.84375 15.945312c1.371094 2.472657 3.933594 3.867188 6.574219 3.867188 1.230469 0 2.480469-.304688 3.636719-.945312 3.625-2.011719 4.933593-6.582032 2.921875-10.207032l-12.195313-21.988281h23.128907l57.125 76.613281h-37.753907l-13.640625-24.589844c-2.011718-3.628906-6.585937-4.9375-10.210937-2.925781s-4.933594 6.585938-2.921875 10.210938l9.601562 17.304687h-39.269531l-17.734375-47.289062h3.371094c8.613281 0 16.171875-5.707032 17.96875-13.566406zm-37.378906 13.566406 17.734374 47.289062h-38.890624l-.03125-47.289062zm-36.203126 0 .03125 47.289062h-38.890624l17.667968-47.289062zm-54.890624 47.289062h-39.273438l36.234375-65.433594 1.046875 4.578126c1.800781 7.859374 9.355469 13.566406 17.96875 13.566406h1.691406zm-38.355469 59.609375c-3.984375-3.988281-6.179688-9.292969-6.175781-14.929687l.007812-11.089844.011719-18.574219h42.207031l-.019531 29.652344v.039063c-.007813 11.628906-9.476563 21.089843-21.101563 21.089843-5.640625 0-10.941406-2.199219-14.929687-6.1875zm51.058593-26.019531.011719-18.574219h42.207031l-.019531 29.652344v.039063c-.007812 11.628906-9.476562 21.089843-21.105469 21.089843-5.636718 0-10.941406-2.195312-14.925781-6.1875-3.988281-3.988281-6.179687-9.292969-6.175781-14.929687zm57.222657 0 .015625-18.574219h42.207031l-.019531 29.652344v.039063c-.007813 11.628906-9.476563 21.089843-21.105469 21.089843-5.640625 0-10.941406-2.195312-14.925781-6.1875-3.988282-3.988281-6.183594-9.292969-6.179688-14.929687zm156.65625 11.113281c-.007813 11.632813-9.476563 21.09375-21.105469 21.09375-5.640625 0-10.941406-2.199219-14.925781-6.1875-3.988281-3.988281-6.183594-9.292969-6.179688-14.929687l.019531-29.664063h42.167969l.046875 9.402344zm-286.023438-131.851562c0-8.542969 6.953125-15.496094 15.496094-15.496094h212.675781c8.546875 0 15.496094 6.953125 15.496094 15.496094v15.304687l-12.5-16.765625c-1.417969-1.902343-3.648438-3.019531-6.019531-3.019531h-39.617188c-3.5 0-6.535156 2.417969-7.320312 5.832031l-4.9375 21.589844c-.207031.914063-1.539063 1.902344-3.328125 1.902344h-94.523438c-1.789062 0-3.125-.988281-3.332031-1.902344l-4.9375-21.589844c-.78125-3.414062-3.816406-5.835937-7.320313-5.835937h-41.3125c-2.371093 0-4.601562 1.121094-6.019531 3.023437l-12.5 16.765625zm-36.136719 146.757812c-3.988281-3.988281-6.183593-9.292969-6.179687-14.925781l.023437-29.667969h42.207032l-.019532 29.652344v.039063c-.007812 11.628906-9.476562 21.089843-21.105468 21.089843-5.640625 0-10.941406-2.199219-14.925782-6.1875zm279.804688 304.214844c0 8.546875-6.949219 15.496094-15.496094 15.496094h-212.675781c-8.542969 0-15.496094-6.949219-15.496094-15.496094v-289.921875c2.792969-2.035156 5.28125-4.457031 7.390625-7.1875.945313 1.222656 1.964844 2.398438 3.074219 3.511719.179687.179687.367187.347656.550781.523437v216.367188c0 4.144531 3.359375 7.507812 7.507813 7.507812 4.148437 0 7.507812-3.363281 7.507812-7.507812v-207.703125c3.207031.917969 6.558594 1.398437 9.984375 1.398437 11.628906 0 21.988282-5.53125 28.601563-14.097656.945312 1.222656 1.964843 2.398438 3.074219 3.511719 6.824218 6.824219 15.898437 10.585937 25.550781 10.585937 11.628906 0 21.988281-5.53125 28.597656-14.097656.945313 1.222656 1.96875 2.398438 3.078125 3.511719 6.824219 6.824219 15.898438 10.585937 25.550781 10.585937 11.628907 0 21.988281-5.53125 28.597657-14.097656.945312 1.222656 1.964843 2.398438 3.078124 3.511719 6.820313 6.824219 15.898438 10.585937 25.550782 10.585937 3.449218 0 6.78125-.496094 9.945312-1.40625v273.886719h-191.609375v-36.144531c0-4.144532-3.363281-7.507813-7.511719-7.507813-4.144531 0-7.507812 3.363281-7.507812 7.507813v39.054687c0 6.675781 5.433594 12.105469 12.109375 12.105469h197.425781c6.679688 0 12.109375-5.429688 12.109375-12.105469v-285.445312c1.308594-1.253907 2.527344-2.605469 3.636719-4.042969.945312 1.222656 1.964844 2.398438 3.074219 3.511719 1.351562 1.347656 2.789062 2.574219 4.300781 3.675781zm15.019531-237.269531h102.296875v11.726562h-102.296875zm102.800781 97.414062c0 22.453125-18.261718 40.714844-40.714843 40.714844-22.449219 0-40.714844-18.265625-40.714844-40.714844 0-22.449218 18.265625-40.714844 40.714844-40.714844 22.453125 0 40.714843 18.265626 40.714843 40.714844zm-16.488281-50.183594c-7.332031-3.550781-15.546875-5.546874-24.222656-5.546874s-16.894531 1.996093-24.222656 5.546874v-20.488281h48.445312zm40.433594-30.683593c0 2.601562-2.113281 4.714843-4.714844 4.714843-2.601562 0-4.71875-2.113281-4.71875-4.714843v-21.367188c0-2.601562 2.117188-4.714843 4.71875-4.714843 2.601563 0 4.714844 2.113281 4.714844 4.714843zm0 0"/><path d="m401.746094 320.355469c-3.421875-2.34375-8.09375-1.460938-10.433594 1.960937l-17.734375 25.964844-4.894531-3.199219c-3.476563-2.269531-8.125-1.292969-10.394532 2.179688-2.265624 3.472656-1.289062 8.125 2.179688 10.390625l11.054688 7.222656c1.265624.824219 2.691406 1.222656 4.101562 1.222656 2.398438 0 4.753906-1.148437 6.207031-3.277344l21.878907-32.03125c2.339843-3.425781 1.460937-8.097656-1.964844-10.433593zm0 0"/><path d="m121.738281 321.046875h115.941407c11.359374 0 20.601562-9.238281 20.601562-20.597656v-69.453125c0-11.359375-9.242188-20.597656-20.601562-20.597656h-115.941407c-11.355469 0-20.597656 9.238281-20.597656 20.597656v69.453125c0 11.359375 9.242187 20.597656 20.597656 20.597656zm-5.582031-90.050781c0-3.078125 2.503906-5.582032 5.582031-5.582032h115.941407c3.078124 0 5.582031 2.503907 5.582031 5.582032v69.453125c0 3.078125-2.503907 5.582031-5.582031 5.582031h-115.941407c-3.078125 0-5.582031-2.503906-5.582031-5.582031zm0 0"/><path d="m153.609375 280.875c.726563 2.425781 2.609375 4.261719 4.933594 4.996094-.761719 1.277344-1.210938 2.765625-1.210938 4.363281 0 4.695313 3.808594 8.507813 8.507813 8.507813 4.699218 0 8.507812-3.808594 8.507812-8.507813 0-1.449219-.363281-2.8125-1-4.003906h11.359375c-.636719 1.191406-1 2.554687-1 4.003906 0 4.695313 3.808594 8.507813 8.507813 8.507813 4.695312 0 8.507812-3.808594 8.507812-8.507813 0-1.484375-.382812-2.875-1.046875-4.089844 2.867188-.40625 5.289063-2.4375 6.136719-5.269531l7.855469-26.277344 2.410156-8.023437h6.113281c4.148438 0 7.507813-3.363281 7.507813-7.507813 0-4.148437-3.359375-7.507812-7.507813-7.507812h-11.699218c-3.3125 0-6.234376 2.171875-7.191407 5.347656l-2.410156 8.023438h-47.945313c-2.371093 0-4.605468 1.121093-6.023437 3.023437s-1.851563 4.363281-1.171875 6.636719zm42.785156-20.929688-3.371093 11.269532h-26.625l-3.371094-11.269532zm0 0"/><path d="m135.484375 335.433594c-4.148437 0-7.507813 3.359375-7.507813 7.507812 0 4.148438 3.359376 7.507813 7.507813 7.507813h87.707031c4.148438 0 7.511719-3.359375 7.511719-7.507813 0-4.148437-3.363281-7.507812-7.511719-7.507812zm0 0"/><path d="m108.007812 379.851562h142.660157c4.148437 0 7.507812-3.359374 7.507812-7.507812 0-4.144531-3.359375-7.507812-7.507812-7.507812h-142.660157c-4.144531 0-7.507812 3.363281-7.507812 7.507812 0 4.148438 3.363281 7.507812 7.507812 7.507812zm0 0"/><path d="m179.710938 387.300781c-20.851563 0-37.816407 16.964844-37.816407 37.816407 0 20.851562 16.964844 37.8125 37.816407 37.8125 20.851562 0 37.8125-16.960938 37.8125-37.8125.003906-20.851563-16.960938-37.816407-37.8125-37.816407zm0 60.613281c-12.574219 0-22.800782-10.226562-22.800782-22.796874 0-12.574219 10.230469-22.800782 22.800782-22.800782 12.570312 0 22.796874 10.230469 22.796874 22.800782 0 12.570312-10.226562 22.796874-22.796874 22.796874zm0 0"/><path d="m185.007812 414.484375-6.382812 6.386719-.964844-.851563c-3.109375-2.742187-7.855468-2.445312-10.597656.664063s-2.445312 7.855468.664062 10.597656l6.25 5.515625c1.425782 1.257813 3.195313 1.878906 4.96875 1.878906 1.925782 0 3.847657-.738281 5.308594-2.199219l11.375-11.375c2.933594-2.933593 2.933594-7.6875 0-10.617187-2.933594-2.933594-7.6875-2.933594-10.621094 0zm0 0"/></svg>