<svg height="512pt" viewBox="-10 0 512 512.001" width="512pt" xmlns="http://www.w3.org/2000/svg"><path d="m208.398438 25.917969h-76.988282c-12.875 0-23.351562 10.476562-23.351562 23.351562 0 12.878907 10.476562 23.355469 23.351562 23.355469h76.988282c12.875 0 23.351562-10.476562 23.351562-23.355469 0-12.875-10.476562-23.351562-23.351562-23.351562zm0 31.699219h-76.988282c-4.601562 0-8.34375-3.742188-8.34375-8.347657 0-4.601562 3.742188-8.34375 8.34375-8.34375h76.988282c4.601562 0 8.34375 3.742188 8.34375 8.34375 0 4.605469-3.742188 8.347657-8.34375 8.347657zm0 0"/><path d="m169.902344 490.296875c15.203125 0 27.566406-12.367187 27.566406-27.566406 0-15.203125-12.363281-27.566407-27.566406-27.566407-15.199219 0-27.566406 12.363282-27.566406 27.566407 0 15.199219 12.367187 27.566406 27.566406 27.566406zm0-40.128906c6.925781 0 12.5625 5.636719 12.5625 12.5625 0 6.921875-5.636719 12.558593-12.5625 12.558593-6.921875 0-12.558594-5.636718-12.558594-12.558593 0-6.925781 5.636719-12.5625 12.558594-12.5625zm0 0"/><path d="m459.042969 123.878906h-46.152344c-4.144531 0-7.503906 3.359375-7.503906 7.503906 0 4.144532 3.359375 7.503907 7.503906 7.503907h46.152344c10.050781 0 18.230469 8.175781 18.230469 18.230469v197.765624c0 10.054688-8.179688 18.230469-18.230469 18.230469h-346.394531c-10.050782 0-18.230469-8.175781-18.230469-18.230469v-197.765624c0-10.054688 8.179687-18.230469 18.230469-18.230469h265.433593c4.144531 0 7.503907-3.359375 7.503907-7.503907 0-4.144531-3.359376-7.503906-7.503907-7.503906h-38.273437v-79.839844c0-24.28125-19.757813-44.039062-44.042969-44.039062h-251.722656c-24.285157 0-44.042969 19.757812-44.042969 44.039062v423.921876c0 24.28125 19.757812 44.039062 44.042969 44.039062h251.722656c24.285156 0 44.042969-19.753906 44.042969-44.039062v-79.839844h119.234375c18.328125 0 33.238281-14.910156 33.238281-33.238282v-197.765624c0-18.328126-14.910156-33.238282-33.238281-33.238282zm-444.035157-79.839844c0-16.007812 13.027344-29.03125 29.035157-29.03125h251.722656c16.011719 0 29.035156 13.023438 29.035156 29.03125v39.5h-309.792969zm309.792969 369.417969h-209.222656c-4.144531 0-7.503906 3.359375-7.503906 7.503907 0 4.144531 3.359375 7.503906 7.503906 7.503906h209.222656v39.496094c0 16.007812-13.027343 29.03125-29.035156 29.03125h-251.722656c-16.007813 0-29.035157-13.023438-29.035157-29.03125v-39.496094h65.550782c4.144531 0 7.503906-3.359375 7.503906-7.503906 0-4.144532-3.359375-7.503907-7.503906-7.503907h-65.550782v-314.914062h309.792969v25.335937h-212.152343c-18.328126 0-33.238282 14.910156-33.238282 33.238282v197.765624c0 18.328126 14.910156 33.238282 33.238282 33.238282h212.152343zm0 0"/><path d="m156.867188 164.023438c-2.410157 2.464843-3.695313 5.71875-3.621094 9.164062.023437.988281-.007813 1.992188-.09375 2.988281-1.179688 13.765625-12.535156 24.144531-26.414063 24.144531h-.226562c-3.410157-.019531-6.691407 1.289063-9.132813 3.707032-2.417968 2.398437-3.75 5.597656-3.75 9.003906v85.9375c0 3.40625 1.332032 6.605469 3.75 9.003906 2.414063 2.394532 5.613282 3.707032 9.039063 3.707032h.105469l.214843-.003907c13.878907 0 25.234375 10.382813 26.414063 24.144531.082031.996094.117187 2.003907.09375 2.988282-.078125 3.445312 1.210937 6.703125 3.621094 9.167968 2.410156 2.464844 5.636718 3.820313 9.085937 3.820313h239.785156c3.449219 0 6.675781-1.355469 9.085938-3.820313 2.410156-2.464843 3.695312-5.71875 3.621093-9.171874-.023437-.980469.007813-1.988282.097657-2.996094 1.183593-13.757813 12.539062-24.132813 26.410156-24.132813l.226563.003907h.109374c3.410157 0 6.609376-1.3125 9.023438-3.710938 2.417969-2.394531 3.75-5.59375 3.75-9v-85.9375c0-3.40625-1.332031-6.605469-3.75-9.003906-2.414062-2.394532-5.613281-3.707032-9.023438-3.707032-.042968 0-.085937-.003906-.125 0h-.210937c-13.871094 0-25.226563-10.375-26.410156-24.132812-.085938-1.003906-.121094-2.011719-.097657-3 .074219-3.445312-1.210937-6.703125-3.621093-9.164062-2.410157-2.464844-5.636719-3.824219-9.085938-3.824219h-239.785156c-3.449219 0-6.675781 1.359375-9.085937 3.824219zm11.371093 11.183593h235.214844c.027344.757813.070313 1.515625.136719 2.269531 1.800781 20.949219 18.609375 36.894532 39.464844 37.8125v81.425782c-20.855469.914062-37.664063 16.863281-39.464844 37.808594-.066406.753906-.109375 1.515624-.136719 2.269531h-235.214844c-.023437-.75-.070312-1.5-.132812-2.25-1.796875-20.957031-18.605469-36.914063-39.46875-37.828125v-81.425782c20.863281-.917968 37.671875-16.871093 39.46875-37.832031.0625-.75.105469-1.5.132812-2.25zm0 0"/><path d="m272.558594 256.003906c3.085937 2.777344 6.507812 4.75 9.53125 6.492188 2.613281 1.503906 5.082031 2.925781 7 4.652344 1.476562 1.332031 1.695312 3.214843.582031 5.039062-.640625 1.046875-2.070313 1.757812-3.730469 1.855469-.886718.050781-2.402344-.496094-3.394531-1.5-.460937-.472657-.621094-.859375-.613281-.992188.300781-4.132812-2.808594-7.726562-6.941406-8.023437-4.136719-.292969-7.726563 2.808594-8.023438 6.941406-.335938 4.59375 1.40625 9.074219 4.894531 12.609375 1.839844 1.863281 4.074219 3.355469 6.480469 4.382813v2.476562c0 4.144531 3.359375 7.5 7.503906 7.5 4.140625 0 7.503906-3.355469 7.503906-7.5v-2.363281c3.8125-1.519531 7.035157-4.136719 9.128907-7.566407 4.871093-7.976562 3.496093-17.851562-3.347657-24.011718-3.09375-2.789063-6.523437-4.765625-9.550781-6.507813-2.605469-1.503906-5.070312-2.921875-6.980469-4.640625-1.476562-1.332031-1.695312-3.214844-.582031-5.035156.640625-1.050781 2.070313-1.761719 3.730469-1.859375.886719-.054687 2.402344.496094 3.394531 1.5.464844.472656.621094.859375.613281.992187-.300781 4.132813 2.808594 7.726563 6.941407 8.023438 4.140625.308594 7.726562-2.808594 8.027343-6.941406.332032-4.59375-1.40625-9.074219-4.898437-12.609375-1.835937-1.863281-4.074219-3.347657-6.476563-4.371094v-2.488281c0-4.144532-3.363281-7.503906-7.503906-7.503906-4.144531 0-7.503906 3.359374-7.503906 7.503906v2.363281c-3.8125 1.519531-7.035156 4.136719-9.128906 7.566406-4.875 7.976563-3.5 17.851563 3.34375 24.015625zm0 0"/><path d="m285.84375 323.121094c37.011719 0 67.125-30.109375 67.125-67.121094s-30.113281-67.121094-67.125-67.121094-67.121094 30.109375-67.121094 67.121094 30.109375 67.121094 67.121094 67.121094zm0-119.238282c28.738281 0 52.117188 23.378907 52.117188 52.117188s-23.378907 52.117188-52.117188 52.117188c-28.734375 0-52.113281-23.378907-52.113281-52.117188s23.378906-52.117188 52.113281-52.117188zm0 0"/></svg>