<svg xmlns="http://www.w3.org/2000/svg" width="56.889" height="50.37" viewBox="0 0 56.889 50.37">
  <g id="transfer-icon" transform="translate(0 -14.2)">
    <g id="Group_1457" data-name="Group 1457" transform="translate(0 14.2)">
      <path id="Path_1715" data-name="Path 1715" d="M44.58,14.2H12.049a6.042,6.042,0,0,0-5.9,6.165V48.486l-3.731-3.9a1.367,1.367,0,0,0-2,0,1.517,1.517,0,0,0,0,2.087l6.157,6.43a1.38,1.38,0,0,0,2.01,0l6.157-6.43a1.517,1.517,0,0,0,0-2.087,1.367,1.367,0,0,0-2,0L9,48.5V20.365a3.142,3.142,0,0,1,3.073-3.209h32.52a3.142,3.142,0,0,1,3.073,3.209v4.1a1.422,1.422,0,1,0,2.842,0v-4.1A6.1,6.1,0,0,0,44.58,14.2Z" transform="translate(0 -14.2)" fill="#f9faff"/>
      <path id="Path_1716" data-name="Path 1716" d="M95.022,150.466l-6.157,6.43a1.517,1.517,0,0,0,0,2.087,1.38,1.38,0,0,0,2.01,0l3.743-3.909V183.2a3.142,3.142,0,0,1-3.073,3.209H59.015a3.142,3.142,0,0,1-3.073-3.209v-4.1a1.422,1.422,0,1,0-2.842,0v4.1a6.041,6.041,0,0,0,5.9,6.165H91.522a6.041,6.041,0,0,0,5.9-6.165V155.075l3.743,3.909a1.367,1.367,0,0,0,2,0,1.517,1.517,0,0,0,0-2.087l-6.157-6.43A1.394,1.394,0,0,0,95.022,150.466Z" transform="translate(-46.694 -138.991)" fill="#f9faff"/>
      <path id="Path_1717" data-name="Path 1717" d="M195.5,136.7a1.483,1.483,0,0,0-1.484,1.484v2.268h-.193a5.4,5.4,0,0,0,0,10.785h3.33a2.453,2.453,0,0,1,0,4.874h-5.984a1.484,1.484,0,1,0,0,2.968h2.847v2.3a1.484,1.484,0,1,0,2.968,0v-2.316h.253a5.4,5.4,0,0,0-.072-10.785h-3.33a2.453,2.453,0,0,1,0-4.874h5.875a1.484,1.484,0,1,0,0-2.968h-2.726v-2.268A1.488,1.488,0,0,0,195.5,136.7Z" transform="translate(-167.054 -124.589)" fill="#f9faff"/>
    </g>
  </g>
</svg>
