<svg id="youtube" xmlns="http://www.w3.org/2000/svg" width="29.863" height="29.863" viewBox="0 0 29.863 29.863">
  <path id="Path_1723" data-name="Path 1723" d="M224.113,213.634l4.857-2.8-4.857-2.8Zm0,0" transform="translate(-211.041 -195.905)" fill="#869ab8"/>
  <path id="Path_1724" data-name="Path 1724" d="M27.71,0H2.154A2.154,2.154,0,0,0,0,2.154V27.71a2.154,2.154,0,0,0,2.154,2.154H27.71a2.154,2.154,0,0,0,2.154-2.154V2.154A2.154,2.154,0,0,0,27.71,0ZM24.262,14.947a24.644,24.644,0,0,1-.384,4.488,2.338,2.338,0,0,1-1.645,1.645,56.752,56.752,0,0,1-7.3.384,54.721,54.721,0,0,1-7.3-.4A2.338,2.338,0,0,1,5.986,19.42,24.536,24.536,0,0,1,5.6,14.932a24.628,24.628,0,0,1,.384-4.488,2.386,2.386,0,0,1,1.645-1.66,56.752,56.752,0,0,1,7.3-.384,54.6,54.6,0,0,1,7.3.4,2.338,2.338,0,0,1,1.645,1.645,23.387,23.387,0,0,1,.384,4.5Zm0,0" transform="translate(0)" fill="#869ab8"/>
</svg>
