<?xml version="1.0" encoding="UTF-8"?>
<!DOCTYPE svg PUBLIC "-//W3C//DTD SVG 1.1//EN" "http://www.w3.org/Graphics/SVG/1.1/DTD/svg11.dtd">
<!-- Creator: CorelDRAW 2017 -->
<svg xmlns="http://www.w3.org/2000/svg" xml:space="preserve" width="14in" height="8in" version="1.1" style="shape-rendering:geometricPrecision; text-rendering:geometricPrecision; image-rendering:optimizeQuality; fill-rule:evenodd; clip-rule:evenodd"
viewBox="0 0 14000 8000"
 xmlns:xlink="http://www.w3.org/1999/xlink">
 <defs>
  <style type="text/css">
   <![CDATA[
    .fil1 {fill:#00B0DC}
    .fil0 {fill:#043496}
    .fil2 {fill:#FF6600}
    .fil3 {fill:#043496;fill-rule:nonzero}
   ]]>
  </style>
 </defs>
 <g id="Layer_x0020_1">
  <metadata id="CorelCorpID_0Corel-Layer"/>
  <path class="fil0" d="M7725.22 1008.68c-605.05,757.85 -464.62,581.76 -848.07,1062.58 -88.22,115.46 -185.54,223.66 -271.68,340.32l-190.72 238.99c-183.37,239.99 -380.36,471.13 -566.41,709.28 -116.66,149.32 -241.74,293.57 -355.31,445.37 -12.31,16.48 -14.75,17.35 -26.88,31.74 -13.29,15.52 -47.26,49.32 -47.61,69.67 334.43,817.68 495.39,1204.6 828.28,2022.8 249.43,602.87 32.94,880.58 -698.58,886.61 -661.28,5.43 -944.5,12.76 -1614.22,12.76l-80.37 -140.96c-14.57,-28.72 -23.89,-45.01 -38.8,-71.83 -13.97,-24.91 -25.26,-42.99 -37.14,-67.06l-229.95 -414.45c-29.3,-52.92 -215.96,-376.39 -225.7,-418.65 -39.66,9.22 -96.48,54.22 -131.57,76.91l-249.85 153.63c-44.15,27.05 -79.74,50.84 -124.5,77.41l-1499.63 928.62c11.75,-44.05 73.2,-77.78 102.25,-112.51l172.86 -185.28c46.48,-45.94 100.97,-95.18 143.19,-143.2l420.06 -439.36c13.45,-13.17 23.61,-21.89 35.08,-36.37 13.97,-17.31 16.54,-21.97 33.2,-38.47l281.82 -291.04c25,-29.14 43.32,-46.8 69.83,-73.37 49.77,-49.67 90.03,-96.49 139.94,-146.39l68.28 -74.93c103.03,-111.31 215.72,-214.67 316,-328.48l316.05 -328.48c31.63,-37.93 75.08,-69.65 106.82,-107.94 16.12,-19.48 12.75,-22.57 34.41,-37.17 34.3,64.77 61.11,130.2 93.28,199.59l551.25 1173.73c22.26,45.02 80.94,150.8 91.31,195.2l807.13 0c375.03,0 563.37,-90 299.78,-618.33 -24.23,-48.8 -44.07,-101.45 -67.34,-153.87 -23.87,-53.63 -44.83,-100 -66.55,-154.86l-134.05 -308.54c-85.46,-206.94 -182,-411.54 -266.95,-618.45l-200.7 -463.13c-22.06,-50.26 -52.48,-100.94 -65.26,-155.98 56.46,-37.86 200.88,-196.64 271.49,-255.71 43.7,-36.54 92,-91.44 133.82,-133.11l266.91 -260.44c45.51,-45.44 87.77,-81.12 133.45,-126.84l191.22 -186.39c0.87,-1.03 2.35,-2.24 3.29,-3.21l72.49 -70.77c89.78,-89.73 177.2,-170.62 266.94,-260.28l335.63 -328.39c306.83,-256.71 1107.98,-1215.53 1451.78,-1070.95z"/>
  <polygon class="fil1" points="2744.9,3803.36 2749.31,3803.36 2745.64,3798.22 "/>
  <path class="fil2" d="M279.29 6991.3c605.06,-757.85 464.62,-581.76 848.11,-1062.58 88.19,-115.47 185.51,-223.66 271.65,-340.32l190.7 -238.99c183.37,-239.99 380.37,-471.13 566.46,-709.27 116.63,-149.31 241.74,-293.57 355.28,-445.4 12.31,-16.45 14.75,-17.31 26.92,-31.7 13.26,-15.52 47.23,-49.32 47.57,-69.67 -334.43,-817.68 -495.41,-1204.6 -828.28,-2022.8 -249.4,-602.87 -32.92,-880.58 698.58,-886.61 661.31,-5.43 944.5,-12.76 1614.2,-12.76l80.37 140.96c14.59,28.72 23.89,45 38.81,71.83 13.97,24.91 25.26,42.99 37.14,67.06l229.93 414.45c29.32,52.92 215.98,376.4 225.72,418.65 39.65,-9.23 96.48,-54.22 131.56,-76.91l249.86 -153.63c44.14,-27.05 79.74,-50.84 124.48,-77.41l1499.65 -928.62c-11.72,44.05 -73.2,77.78 -102.26,112.51l-172.86 185.28c-46.45,45.95 -100.97,95.18 -143.2,143.2l-420.05 439.37c-13.45,13.17 -23.63,21.89 -35.08,36.37 -13.97,17.31 -16.54,21.97 -33.2,38.47l-281.83 291.04c-24.99,29.14 -43.28,46.8 -69.81,73.37 -49.78,49.66 -90.03,96.49 -139.95,146.39l-68.28 74.92c-103.03,111.31 -215.72,214.68 -316,328.48l-316.05 328.48c-31.63,37.93 -75.09,69.65 -106.83,107.94 -16.11,19.48 -12.74,22.57 -34.39,37.17 -34.32,-64.77 -61.11,-130.2 -93.26,-199.6l-551.28 -1173.76c-22.23,-44.99 -80.94,-150.77 -91.28,-195.17l-938.06 0c-364.38,0 -334.3,228.33 -253.37,425.53 28.04,68.3 56.07,135.8 84.49,192.81 24.22,48.8 44.05,101.45 67.34,153.87 23.85,53.63 44.83,100 66.55,154.86l134.05 308.54c85.46,206.91 182,411.54 266.94,618.45l200.72 463.13c22.07,50.26 52.52,100.94 65.25,155.98 -56.46,37.86 -200.88,196.64 -271.48,255.71 -43.71,36.54 -92,91.44 -133.8,133.11l-266.94 260.44c-45.52,45.44 -87.74,81.12 -133.47,126.84l-191.22 186.39c-0.85,1.03 -2.34,2.24 -3.28,3.21l-72.49 70.77c-89.76,89.73 -177.16,170.62 -266.94,260.28l-335.62 328.39c-306.79,256.71 -1107.99,1215.53 -1451.79,1070.95z"/>
  <path class="fil2" d="M4215.8 3657.1c-34.65,27.96 -406.32,72.92 -469.6,100.56l-43.87 182.08c-8.34,34.46 -15.06,58.12 -23.17,91.78 -6.7,27.76 -10.64,74.26 -30.52,94.51 1.65,18.67 -31.21,134.58 -37.49,163.83 -7.6,35.39 -15.86,37.86 -8.75,59.07 26.41,-4.96 52.84,-11.7 79.19,-16.86l553.12 -108.56c6.61,-20.68 13.29,-47.78 18.31,-70.88 5.98,-27.48 11.67,-48.54 18.59,-75.12 13.52,-51.67 24.27,-97.95 38.03,-150.14 7.26,-27.47 11.18,-47.05 18.48,-75.15 9.31,-35.85 60.74,-196.63 47.85,-226.3 -27.35,13 -130.02,31.62 -160.17,31.18z"/>
  <path class="fil3" d="M6580.81 3888.75c0,669.86 0,1369.94 0,2039.8 0,724.46 378.88,850.32 939.69,828.76l936.87 0 0 -511.3 -844.97 0c-491.36,0 -454.56,-688.91 -88.44,-704.08l818.71 -7.75 0 -437.48 -1101.17 0 0 -622.82 1170 0c10.69,-460.89 -537.19,-585.14 -773.33,-585.14l-1057.36 0z"/>
  <path class="fil3" d="M8787.68 4036.43l0 500.59 0 2146.43 605.64 0 0 -1853.65 9.17 0 584.55 1341.86 222.95 511.79c403.69,3.31 752.46,-161.7 752.46,-635.72l0 -2011.3 -605.61 0 0 1812.88 -9.21 0 -798.33 -1812.88 -761.63 0z"/>
  <path class="fil3" d="M11453.46 6683.46l1041.53 0c876.35,0 1124.11,-422.63 1124.11,-1360.59 0,-778.55 -165.24,-1351.33 -1082.81,-1351.33l-490.47 0c-646.19,0 -592.36,461.61 -592.36,668.14l0 2043.78zm660.7 -2106.4l279.88 0c504.7,0 638.18,160.04 638.18,760.62 0,719.24 -165.75,805.13 -624.41,805.13l-293.65 0 0 -1565.74z"/>
 </g>
</svg>
